<?xml version="1.0" encoding="utf-8"?>
<!-- Generator: Adobe Illustrator 18.1.1, SVG Export Plug-In . SVG Version: 6.00 Build 0)  -->
<svg version="1.1" id="Layer_1" xmlns="http://www.w3.org/2000/svg" xmlns:xlink="http://www.w3.org/1999/xlink" x="0px" y="0px"
	 viewBox="0 0 67.3 114.3" enable-background="new 0 0 67.3 114.3" xml:space="preserve">
<g>
	<path fill="#488CF0" d="M36.2,58.3c0.1,2.1,1.5,3.7,2.5,5.4c8.8,14.5,17.7,28.9,26.5,43.4c3.1,5.2,2.4,7-3.5,7.2
		c-8,0.3-16,0-23.9-0.4c-3.9-0.2-6.3-2.9-8.1-6C20.4,93,11.3,78.1,2.1,63.3c-1.8-2.9-3-6.1-1.4-9C6,45.1,11,35.7,17.8,27.5
		c3.3,3.2,4.4,7.7,7.1,11.3c0.9,1.6,2,3.1,3,4.6c1.1,1.7,2.2,3.4,3.2,5.2C32.5,52,35.9,54.3,36.2,58.3z"/>
	<path fill="#C55342" d="M36.2,58.3c-2.3-3-4.7-5.9-6.1-9.5c0.9-1.5,2.6-2,3.8-3.1c3.7-3.5,3.7-7.1-0.1-10.8c-1.5-1-2.8-2.4-4.2-3.5
		c-3.2-2.9-7.2-5-9.6-8.8c3.2-5.3,6.3-10.5,9.5-15.8c2.5-4.2,6.1-6.5,11-6.6c7.5-0.1,15-0.2,22.5-0.1c4.7,0.1,5.6,1.8,3.1,6
		c-7.7,12.8-15.5,25.6-23.3,38.3C39.9,48.8,37.5,53.3,36.2,58.3z"/>
	<path fill="#B54D3F" d="M19.9,22.6c4,2,6.9,5.4,10.3,8.2c0,4.3-1.6,7.5-6,8.9c-2.7-3.7-5.5-7.4-6.5-12.1
		C17,25.2,18.5,23.9,19.9,22.6z"/>
	<path fill="#BF5141" d="M34.2,33.7c2.5,1.6,4.6,3.4,3.9,6.8c-0.9,4.4-3.3,7.5-8,8.3c-1.3-1.4-2.4-2.9-3-4.8
		C29,40.2,31.8,37.1,34.2,33.7z"/>
	<path fill="#BA4F40" d="M34.2,33.7c-0.9,4.5-3.4,7.8-7.1,10.2c-1.3-1.2-2.2-2.6-2.8-4.3c2.8-2.4,4.5-5.6,6-8.9
		C31.6,31.7,32.9,32.7,34.2,33.7z"/>
</g>
</svg>
