<?xml version="1.0" encoding="utf-8"?>
<!-- Generator: Adobe Illustrator 18.1.1, SVG Export Plug-In . SVG Version: 6.00 Build 0)  -->
<svg version="1.1" id="Layer_1" xmlns="http://www.w3.org/2000/svg" xmlns:xlink="http://www.w3.org/1999/xlink" x="0px" y="0px"
	 viewBox="0 0 67.1 114" enable-background="new 0 0 67.1 114" xml:space="preserve">
<g>
	<path fill="#469557" d="M31.2,55.4c-4-9-10-16.8-15-25.2c-4.7-8-9.8-15.8-14.7-23.7c-2.8-4.6-2-6.3,3.5-6.4c7.3-0.1,14.6,0,22,0.1
		c4.9,0,8.5,2.4,11,6.5c9,14.7,18,29.5,27.1,44.1c2.8,4.5,2.6,8.7-0.2,13.1c-4.9,7.7-9.7,15.5-14.5,23.2c-3.1-0.3-2.6-3.3-3.9-4.9
		c-0.6-1.4-1.2-2.7-2.1-4c-0.7-1.1-1.4-2.2-2-3.3c-0.9-1.7-2-3.3-3.1-4.8c-1.1-1.6-1.9-3.4-3.1-5.1C34.6,61.7,32,59,31.2,55.4z"/>
	<path fill="#F1C251" d="M31.2,55.4c2.6,2.7,4.3,6,6,9.3c-1.3,1.6-3.4,1.9-5,3.2c-4.3,3.6-4.3,5.3,0,8.9c1.2,0.9,2.3,2,3.6,2.9
		c1.4,0.9,2.6,2.2,4,3.3c1.4,1,2.8,1.9,4,3.1c1.4,1.6,3.8,2.1,4.4,4.6c-3.3,5.7-6.6,11.5-10.1,17.1c-2.5,4.1-6.1,6.3-11.2,6.1
		c-7.1-0.2-14.3-0.1-21.4-0.1c-5.5-0.1-6.3-1.5-3.5-6.2C10.5,93.4,19,79.2,27.8,65.1C29.8,62,30.1,58.6,31.2,55.4z"/>
	<path fill="#DAB14D" d="M48.1,90.7c-1.6-1.4-3.9-1.9-4.9-4c-1.2-3.8,1.3-4.6,4.1-5.2c2,1.3,1.2,4.3,3.2,5.5
		C49.7,88.3,48.9,89.5,48.1,90.7z"/>
	<path fill="#EBBE50" d="M32.1,77.7c-6.1-2.8-6.5-5.3-1.5-10c1.9-1.8,3.8-3.1,6.5-3c1,1.7,2,3.3,3.1,5
		C38.3,73.1,34.7,74.9,32.1,77.7z"/>
	<path fill="#E6BA4E" d="M32.1,77.7c1-4.4,5-5.7,8.1-8c1.3,1.5,2.5,3,3.1,5c-2.8,1.9-5,4.6-8.1,6C33.8,80,32.8,79,32.1,77.7z"/>
	<path fill="#E2B74D" d="M35.1,80.7c2.3-2.6,3.9-6,8.1-6c0.6,1,1.3,2,1.9,3c-1.2,2.8-4,4-6,6C37.8,82.7,36.5,81.7,35.1,80.7z"/>
	<path fill="#DFB44D" d="M39.1,83.7c0.4-3.6,3.9-4.1,6-6c1.2,1,1.8,2.3,2.1,3.9c-1.3,1.8-4.1,2.3-4.1,5.2
		C41.8,85.7,40.5,84.7,39.1,83.7z"/>
</g>
</svg>
